# xmcd
#
# Track frame offsets: 
#        150
#        17881
#        37417
#        47548
#        64366
#        89962
#        99740
#        115454
#        117838
#        144412
#        158004
#        172921
#        190881
#        216958
#
# Disc length: 3214 seconds
#
# Revision: 2
# Processed by: cddbd v1.5.2PL0 Copyright (c) Steve Scherf et al.
# Submitted via: ExactAudioCopy v0.99pb5
#
DISCID=d10c8c0e
DTITLE=The Lord Weird Slough Feg - The Lord Weird Slough Feg
DYEAR=1996
DGENRE=Heavy/Folk Metal
TTITLE0=Shadows of the Unborn
TTITLE1=20th Century Wretch
TTITLE2=Blarney Stone
TTITLE3=The Red Branch
TTITLE4=Why Not - Highway Corsair
TTITLE5=High Season III
TTITLE6=High Season IV
TTITLE7=Intro (Instrumental)
TTITLE8=The Mask
TTITLE9=High Season I
TTITLE10=High Season II
TTITLE11=The Red Branch - demo version
TTITLE12=The Room
TTITLE13=Headhunter
EXTD=
EXTT0=
EXTT1=
EXTT2=
EXTT3=
EXTT4=
EXTT5=
EXTT6=
EXTT7=
EXTT8=
EXTT9=
EXTT10=
EXTT11=
EXTT12=
EXTT13=
PLAYORDER=
